# xmcd
#
# Track frame offsets: 
#        150
#        15908
#        21765
#        41235
#        59540
#        72514
#        101365
#        110504
#        125426
#        145280
#        165115
#        181622
#        198346
#        216982
#        235524
#        252301
#        270389
#        287428
#
# Disc length: 4060 seconds
#
# Revision: 0
# Processed by: cddbd v1.5.2PL0 Copyright (c) Steve Scherf et al.
# Submitted via: ExactAudioCopy v0.99pb4
#
DISCID=f30fda12
DTITLE=Cow Cow Davenport - Vol. 3 - The Unissued 1940s Acetate Recordi
DTITLE=ngs
DYEAR=1997
DGENRE=Blues
TTITLE0=Betty and Dupree (Cow Cow Davenport, vcl)
TTITLE1=Darktown strutters ball (fragment)
TTITLE2=Peggy-boogie
TTITLE3=Peggy-boogie (no. 2)
TTITLE4=Boogie no. 1 (Cow Cow boogie)(Cow Cow Davenport, vcl)
TTITLE5=Boogie no. 2 (Swanee River boogie and improvisations)
TTITLE6=Boogie no. 3 (mama don`t allow) (Cow Cow Davenport, vcl)
TTITLE7=Boogie no. 4 (improvisation - Atlanta rag)
TTITLE8=Cow Cow blues (fragment)
TTITLE9=Every day (I got a gal for every day in the week) (Cow Cow Dav
TTITLE9=enport, vcl)
TTITLE10=Papa Cow Cow`s boogie
TTITLE11=Peggy`s boogie (no. 3)
TTITLE12=Peggy-43 [sic] Love my man (Peggy Taylor, vcl)
TTITLE13=Peggy (take me back, mama) (Cow Cow Davenport, vcl)
TTITLE14=What a man (Peggy Taylor, vcl)
TTITLE15=Crazy about my loving (Peggy Taylor, vcl)
TTITLE16=Make me a pallet on the floor - Mama Yancey (1951) acetate tr
TTITLE16=ansfers
TTITLE17=Hurry sundown - Mama Yancey (1951) acetate transfers
EXTD=
EXTT0=
EXTT1=
EXTT2=
EXTT3=
EXTT4=
EXTT5=
EXTT6=
EXTT7=
EXTT8=
EXTT9=
EXTT10=
EXTT11=
EXTT12=
EXTT13=
EXTT14=
EXTT15=
EXTT16=
EXTT17=
PLAYORDER=
